<svg xmlns="http://www.w3.org/2000/svg" width="61" height="60" fill="none" viewBox="0 0 61 60">
  <path fill="#57B846" fill-rule="evenodd" d="M55.002 15v-.087a10 10 0 0 0-10-9.913H2.5a2.5 2.5 0 0 1 0-5h42.502a15.018 15.018 0 0 1 15 15 2.5 2.5 0 0 1-5 0ZM5 45v.087A10 10 0 0 0 15 55h42.502a2.5 2.5 0 1 1 0 5H15.001A15.018 15.018 0 0 1 0 45a2.5 2.5 0 1 1 5 0Zm16.667-2.526a15 15 0 0 0 8.334 2.528 15.018 15.018 0 0 0 15-15 15 15 0 1 0-23.334 12.472Zm2.778-20.788a10 10 0 0 1 5.556-1.685 10.013 10.013 0 0 1 10 10 10.001 10.001 0 1 1-15.556-8.315Z" clip-rule="evenodd"/>
</svg>
