<svg width="60" height="53" viewBox="0 0 60 53" fill="none" xmlns="http://www.w3.org/2000/svg">
<path d="M56.188 4.45595V48.2749C56.188 48.4038 56.188 48.5375 56.168 48.6641C56.193 48.4993 56.213 48.3418 56.238 48.1866C56.2021 48.4327 56.1332 48.6734 56.033 48.9028L56.223 48.4635C56.1485 48.6082 56.065 48.7485 55.973 48.8837C55.8205 49.1224 56.253 48.5924 56.1005 48.7381C56.043 48.793 55.993 48.8598 55.9355 48.9147C55.878 48.9696 55.833 49.0054 55.783 49.0484C55.553 49.2609 56.1855 48.8097 55.903 48.9577C55.7555 49.0365 55.6155 49.1224 55.463 49.1964L55.923 49.015C55.6831 49.1114 55.4309 49.1773 55.1729 49.2107L55.673 49.1439C55.1936 49.1745 54.7129 49.1809 54.2329 49.163H43.1924L44.8425 51.9084C46.0077 50.017 46.7631 47.9213 47.0638 45.7458C47.3645 43.5703 47.2044 41.3592 46.593 39.2439C45.9816 37.1286 44.9313 35.1521 43.5046 33.4319C42.0779 31.7116 40.3037 30.2826 38.2875 29.2296C36.2712 28.1767 34.054 27.5213 31.7674 27.3023C29.4807 27.0834 27.1714 27.3053 24.9763 27.955C22.7813 28.6047 20.7453 29.6689 18.9892 31.0844C17.2332 32.4999 15.7929 34.2379 14.7538 36.1952C13.7122 38.1729 13.0902 40.3278 12.9237 42.5358C12.7426 45.1958 13.2393 47.858 14.3712 50.2946C14.6204 50.8456 14.9034 51.3821 15.2188 51.9012L16.8688 49.1558H6.0784C5.51087 49.1558 4.91834 49.1916 4.35082 49.1367L4.85084 49.2036C4.59308 49.1693 4.341 49.1035 4.10081 49.0078L4.56084 49.1893C4.40933 49.1181 4.26239 49.0384 4.12081 48.9505C3.8708 48.8049 4.42583 49.2179 4.27332 49.0723C4.21582 49.0174 4.14581 48.9696 4.08831 48.9147C4.03081 48.8598 3.99331 48.8168 3.9483 48.7691C3.7258 48.5495 4.19832 49.1534 4.04331 48.8837C3.96081 48.7428 3.8708 48.6091 3.7933 48.4635L3.98331 48.9028C3.8831 48.6734 3.81419 48.4327 3.7783 48.1866C3.8033 48.3513 3.82331 48.5089 3.84831 48.6641C3.81337 48.1873 3.80668 47.7091 3.8283 47.2317V4.51086C3.8283 4.38194 3.82831 4.24825 3.84831 4.12173C3.82331 4.28645 3.8033 4.44401 3.7783 4.59918C3.81422 4.35305 3.88312 4.11235 3.98331 3.88299L3.7933 4.32226C3.86782 4.17759 3.95131 4.03728 4.04331 3.90209C4.19582 3.66336 3.7633 4.19334 3.9158 4.04772C3.9733 3.99281 4.02331 3.92597 4.08081 3.87106C4.13832 3.81615 4.18332 3.78034 4.23332 3.73737C4.46333 3.5249 3.8308 3.9761 4.11332 3.82808C4.26082 3.7493 4.40083 3.66336 4.55333 3.58936L4.09332 3.77079C4.33323 3.67433 4.58541 3.60851 4.84335 3.57503L4.34332 3.64188C4.88678 3.60806 5.43173 3.60169 5.97589 3.62278H55.2929C55.433 3.62278 55.568 3.62278 55.708 3.64188L55.2079 3.57503C55.4657 3.60934 55.7178 3.67513 55.958 3.77079L55.498 3.58936C55.6495 3.66052 55.7964 3.74023 55.938 3.82808C56.188 3.97371 55.633 3.56071 55.7855 3.70634C55.843 3.76124 55.913 3.80899 55.9705 3.8639C56.028 3.91881 56.0655 3.96177 56.1105 4.00952C56.333 4.22915 55.8605 3.62517 56.0155 3.89493C56.098 4.03578 56.188 4.16947 56.2655 4.3151L56.0755 3.87583C56.1765 4.10492 56.2454 4.34573 56.2805 4.59203C56.2555 4.4273 56.2355 4.26974 56.2105 4.11456C56.2105 4.23632 56.223 4.35329 56.2305 4.45595C56.2305 4.94031 56.432 5.40483 56.7907 5.74733C57.1493 6.08982 57.6358 6.28223 58.1431 6.28223C58.6503 6.28223 59.1368 6.08982 59.4955 5.74733C59.8542 5.40483 60.0556 4.94031 60.0556 4.45595C60.038 3.27148 59.5339 2.141 58.6521 1.30785C57.7702 0.474702 56.581 0.00549946 55.3404 0.00123945H4.95085C4.07254 -0.0174702 3.20366 0.177216 2.42575 0.567029C1.69528 0.967445 1.08945 1.54612 0.670332 2.24375C0.251219 2.94138 0.0338984 3.73287 0.0406427 4.53712V46.8211C-0.0592649 47.8157 0.0253745 48.8195 0.290659 49.7861C0.53873 50.4447 0.941841 51.0401 1.46892 51.5264C1.99601 52.0127 2.63299 52.377 3.33078 52.5912C3.84168 52.7355 4.37329 52.8015 4.90584 52.7869H16.8563C17.1904 52.7815 17.5173 52.6934 17.805 52.5312C18.0927 52.369 18.3314 52.1383 18.4977 51.8616C18.664 51.5849 18.7522 51.2717 18.7537 50.9526C18.7553 50.6336 18.6701 50.3197 18.5064 50.0415C18.1815 49.507 17.8902 48.9546 17.6339 48.3871L17.8239 48.8264C17.2974 47.6311 16.9376 46.375 16.7538 45.0903C16.7788 45.255 16.7988 45.4125 16.8238 45.5677C16.6454 44.277 16.6454 42.9695 16.8238 41.6788C16.7988 41.8435 16.7788 42.0011 16.7538 42.1563C16.9361 40.8818 17.2917 39.6355 17.8114 38.4488L17.6214 38.888C17.9156 38.2218 18.2607 37.5771 18.6539 36.9591C18.8514 36.6559 19.0564 36.3503 19.2789 36.0591L19.4515 35.8347C19.4765 35.8036 19.5015 35.775 19.529 35.7368C19.6365 35.5912 19.3515 35.9755 19.3565 35.9493C19.389 35.8156 19.6315 35.627 19.7265 35.5172C20.2105 34.9693 20.737 34.457 21.3015 33.9845C21.4365 33.8699 21.5765 33.7601 21.7166 33.6503L21.9466 33.4736C22.1641 33.3041 21.5515 33.7529 21.8566 33.5405C22.1616 33.328 22.4691 33.1203 22.7816 32.9269C23.5125 32.48 24.282 32.0934 25.0817 31.7715L24.6217 31.9529C25.8642 31.4559 27.1695 31.1164 28.5043 30.9431L28.0043 31.0099C29.3535 30.8395 30.7203 30.8395 32.0695 31.0099L31.5695 30.9431C32.9041 31.1172 34.2094 31.4566 35.4521 31.9529L34.9921 31.7715C35.6898 32.0525 36.365 32.382 37.0122 32.7574C37.3297 32.946 37.6497 33.1418 37.9547 33.3543L38.1897 33.519C38.2222 33.5429 38.2522 33.5667 38.2922 33.593C38.4447 33.6957 38.0422 33.4235 38.0697 33.4283C38.2097 33.4593 38.4072 33.6909 38.5223 33.7816C39.096 34.2438 39.6325 34.7466 40.1273 35.2856C40.2473 35.4145 40.3623 35.5482 40.4773 35.6819C40.5398 35.7559 40.5973 35.8275 40.6623 35.9015C40.8398 36.1092 40.3698 35.5243 40.5923 35.8156C40.8148 36.1068 41.0324 36.4005 41.2349 36.6989C41.7029 37.3968 42.1077 38.1315 42.4449 38.8952L42.2549 38.4559C42.7754 39.6424 43.1309 40.8888 43.3125 42.1634C43.2875 41.9987 43.2675 41.8411 43.2425 41.686C43.4177 42.9769 43.4177 44.284 43.2425 45.5749C43.2675 45.4101 43.2875 45.2526 43.3125 45.0974C43.1295 46.3823 42.7697 47.6386 42.2424 48.8335L42.4324 48.3943C42.1761 48.9618 41.8848 49.5142 41.5599 50.0487C41.3955 50.3267 41.3096 50.6408 41.3108 50.9601C41.312 51.2794 41.4001 51.5929 41.5666 51.8699C41.733 52.1468 41.972 52.3776 42.2602 52.5397C42.5483 52.7017 42.8756 52.7894 43.2099 52.7941H49.0352C51.1378 52.7941 53.2354 52.8132 55.3379 52.7941C56.5759 52.7867 57.7613 52.3159 58.6397 51.483C59.5181 50.6501 60.0193 49.5213 60.0356 48.3394V4.45595C60.0356 3.97 59.8335 3.50396 59.4736 3.16035C59.1138 2.81673 58.6257 2.62369 58.1168 2.62369C57.6079 2.62369 57.1199 2.81673 56.76 3.16035C56.4002 3.50396 56.198 3.97 56.198 4.45595H56.188Z" fill="#57B846"/>
</svg>
