<svg width="58" height="38" viewBox="0 0 58 38" fill="none" xmlns="http://www.w3.org/2000/svg">
<path d="M27.4062 26.0078C29.9219 24.3367 31.8327 21.9 32.8559 19.0585C33.8791 16.217 33.9603 13.1215 33.0874 10.2303C32.2146 7.33901 30.4342 4.80556 28.0096 3.00484C25.585 1.20412 22.6451 0.231812 19.625 0.231812C16.6049 0.231812 13.665 1.20412 11.2404 3.00484C8.8158 4.80556 7.03536 7.33901 6.16254 10.2303C5.28973 13.1215 5.37092 16.217 6.39411 19.0585C7.41729 21.9 9.32809 24.3367 11.8437 26.0078C7.55227 27.5859 3.84705 30.4405 1.22655 34.1875C1.05576 34.3854 0.928227 34.6168 0.852152 34.8669C0.776077 35.117 0.753137 35.3802 0.784807 35.6397C0.816476 35.8992 0.902054 36.1492 1.03605 36.3737C1.17004 36.5981 1.34949 36.7921 1.56287 36.9431C1.77625 37.0941 2.01885 37.1988 2.27509 37.2505C2.53133 37.3022 2.79556 37.2998 3.0508 37.2434C3.30605 37.1869 3.54667 37.0777 3.75722 36.9228C3.96778 36.7679 4.14361 36.5706 4.27343 36.3438C6.0061 33.8823 8.30526 31.8735 10.977 30.4869C13.6488 29.1002 16.6148 28.3764 19.625 28.3764C22.6352 28.3764 25.6012 29.1002 28.273 30.4869C30.9447 31.8735 33.2439 33.8823 34.9766 36.3438C35.1064 36.5706 35.2822 36.7679 35.4928 36.9228C35.7033 37.0777 35.9439 37.1869 36.1992 37.2434C36.4544 37.2998 36.7186 37.3022 36.9749 37.2505C37.2311 37.1988 37.4737 37.0941 37.6871 36.9431C37.9005 36.7921 38.0799 36.5981 38.2139 36.3737C38.3479 36.1492 38.4335 35.8992 38.4652 35.6397C38.4968 35.3802 38.4739 35.117 38.3978 34.8669C38.3218 34.6168 38.1942 34.3854 38.0234 34.1875C35.4029 30.4405 31.6977 27.5859 27.4062 26.0078ZM9.31249 14.3125C9.31249 12.2729 9.91731 10.2791 11.0505 8.58318C12.1836 6.8873 13.7942 5.56552 15.6786 4.78499C17.5629 4.00446 19.6364 3.80024 21.6369 4.19815C23.6373 4.59606 25.4748 5.57823 26.917 7.02046C28.3593 8.46269 29.3414 10.3002 29.7393 12.3006C30.1373 14.3011 29.933 16.3746 29.1525 18.2589C28.372 20.1433 27.0502 21.7539 25.3543 22.887C23.6584 24.0202 21.6646 24.625 19.625 24.625C16.8899 24.625 14.2669 23.5385 12.333 21.6045C10.399 19.6706 9.31249 17.0475 9.31249 14.3125ZM56.6797 36.7891C56.4803 36.9326 56.2544 37.035 56.015 37.0903C55.7757 37.1456 55.5278 37.1528 55.2856 37.1113C55.0435 37.0699 54.812 36.9807 54.6047 36.8489C54.3974 36.7171 54.2184 36.5454 54.0781 36.3438C52.3442 33.8834 50.0448 31.8754 47.3734 30.4887C44.7019 29.102 41.7365 28.3771 38.7266 28.375C38.2293 28.375 37.7524 28.1775 37.4007 27.8258C37.0491 27.4742 36.8516 26.9973 36.8516 26.5C36.8516 26.0027 37.0491 25.5258 37.4007 25.1742C37.7524 24.8225 38.2293 24.625 38.7266 24.625C41.4616 24.625 44.0846 23.5385 46.0186 21.6045C47.9526 19.6706 49.0391 17.0475 49.0391 14.3125C49.0391 11.5775 47.9526 8.95443 46.0186 7.02046C44.0846 5.08649 41.4616 4 38.7266 4C37.7847 4.00627 36.8475 4.13228 35.9375 4.375C35.7005 4.44297 35.4524 4.46354 35.2075 4.43552C34.9625 4.4075 34.7255 4.33144 34.51 4.21171C34.2945 4.09198 34.1047 3.93091 33.9515 3.73774C33.7983 3.54456 33.6847 3.32307 33.6172 3.08594C33.4863 2.60743 33.5479 2.09671 33.7888 1.66305C34.0297 1.2294 34.4308 0.907278 34.9062 0.765623C36.1522 0.430148 37.4362 0.256842 38.7266 0.249998C41.7498 0.239116 44.6958 1.20447 47.1263 3.00245C49.5568 4.80043 51.342 7.33498 52.2163 10.2291C53.0906 13.1232 53.0073 16.2222 51.9787 19.0651C50.9502 21.9081 49.0314 24.343 46.5078 26.0078C50.802 27.5923 54.513 30.4451 57.1484 34.1875C57.4297 34.5951 57.5383 35.0975 57.4505 35.5849C57.3627 36.0724 57.0856 36.5052 56.6797 36.7891Z" fill="#57B846"/>
</svg>
