<svg width="43" height="48" viewBox="0 0 43 48" fill="none" xmlns="http://www.w3.org/2000/svg">
<path d="M11.5187 19.5775C11.774 16.8944 12.3739 14.874 13.3243 13.5162C14.8098 11.3418 16.7957 10.2535 19.2843 10.2535C21.4385 10.2535 23.1772 10.975 24.4965 12.4158C25.8157 13.8587 26.6304 16.2459 26.9384 19.5775H11.5187ZM42.9194 25.9002C42.9194 19.9625 42.0318 15.1415 40.2566 11.439C38.4834 7.7366 35.9016 4.90557 32.5093 2.95607C29.1149 1.00455 24.4904 0.027771 18.6297 0.027771C11.4093 0.027771 5.74721 2.20424 1.64759 6.55718C1.17136 7.06583 0.725531 7.59475 0.304018 8.1419C0.847122 8.89576 1.36185 9.70029 1.84416 10.5676C3.88688 14.2275 4.90824 18.5298 4.90824 23.4785C4.90824 29.6979 3.30325 34.8654 0.103394 38.9874C1.8543 41.4253 3.91525 43.2917 6.28829 44.5765C9.39695 46.2585 13.6627 47.0995 19.0816 47.0995C25.3233 47.0995 30.1119 46.1207 33.4556 44.1651C36.7953 42.2055 39.6466 38.9752 42.0075 34.4662L26.5493 32.8126C25.5746 34.2048 24.6647 35.1715 23.8176 35.7206C22.4335 36.59 20.9744 37.0217 19.4363 37.0217C17.0024 37.0217 15.0286 36.0449 13.5168 34.0792C12.4408 32.7133 11.7599 30.6382 11.4782 27.8497H42.9194V25.9002Z" fill="white"/>
</svg>
