<svg width="60" height="65" viewBox="0 0 60 65" fill="none" xmlns="http://www.w3.org/2000/svg">
<path d="M51.6583 58.1156V39.2517L57.3838 35.0157C58.7604 33.997 59.676 32.4732 59.9291 30.7794C60.1822 29.0857 59.7521 27.3608 58.7334 25.9841L55.5112 21.6319C54.574 20.3622 53.2027 19.4813 51.6583 19.1566V17.2194C51.6582 16.6486 51.4314 16.1012 51.0277 15.6977L35.9607 0.630662C35.5571 0.226975 35.0097 0.000121908 34.4389 0H6.45729C4.74471 0 3.10227 0.68032 1.8913 1.8913C0.68032 3.10227 0 4.74471 0 6.45729V58.1156C0 59.8282 0.68032 61.4707 1.8913 62.6816C3.10227 63.8926 4.74471 64.5729 6.45729 64.5729H45.201C46.9136 64.5729 48.5561 63.8926 49.767 62.6816C50.978 61.4707 51.6583 59.8282 51.6583 58.1156ZM4.30486 58.1156V6.45729C4.30486 5.88643 4.53164 5.33895 4.93529 4.93529C5.33895 4.53164 5.88643 4.30486 6.45729 4.30486H32.2865V16.1583C32.2865 17.9341 33.7264 19.3719 35.5 19.3719H47.3535V19.7378C47.0521 19.8928 46.7616 20.0736 46.4796 20.2824L40.851 24.4473C40.7851 24.2249 40.6492 24.0298 40.4634 23.8909C40.2776 23.7521 40.0519 23.6769 39.82 23.6767H11.8384C11.5529 23.6767 11.2792 23.7901 11.0774 23.992C10.8755 24.1938 10.7622 24.4675 10.7622 24.753C10.7622 25.0384 10.8755 25.3121 11.0774 25.514C11.2792 25.7158 11.5529 25.8292 11.8384 25.8292H38.9827L33.1647 30.134H11.8384C11.5529 30.134 11.2792 30.2474 11.0774 30.4492C10.8755 30.6511 10.7622 30.9248 10.7622 31.2102C10.7622 31.4957 10.8755 31.7694 11.0774 31.9713C11.2792 32.1731 11.5529 32.2865 11.8384 32.2865H30.2567L24.4387 36.5913H11.8384C11.5529 36.5913 11.2792 36.7047 11.0774 36.9065C10.8755 37.1084 10.7622 37.3821 10.7622 37.6675C10.7622 37.953 10.8755 38.2267 11.0774 38.4285C11.2792 38.6304 11.5529 38.7438 11.8384 38.7438H21.5308L15.8333 42.9582C15.795 42.9871 15.7577 43.0173 15.7214 43.0486H11.8384C11.5529 43.0486 11.2792 43.162 11.0774 43.3638C10.8755 43.5657 10.7622 43.8394 10.7622 44.1248C10.7622 44.4103 10.8755 44.684 11.0774 44.8858C11.2792 45.0877 11.5529 45.201 11.8384 45.201H14.7076L11.6188 55.3261C11.5206 55.6478 11.4991 55.988 11.5562 56.3195C11.6132 56.651 11.7471 56.9645 11.9472 57.2349C12.1472 57.5053 12.4079 57.725 12.7082 57.8765C13.0085 58.0279 13.3402 58.1069 13.6765 58.107L25.4546 58.1156C25.9164 58.1163 26.3662 57.9684 26.7375 57.6938L47.3535 42.4373V58.1156C47.3535 58.6865 47.1267 59.234 46.723 59.6376C46.3194 60.0413 45.7719 60.2681 45.201 60.2681H6.45729C5.88643 60.2681 5.33895 60.0413 4.93529 59.6376C4.53164 59.234 4.30486 58.6865 4.30486 58.1156ZM35.5 17.2194C35.3607 17.2194 35.2227 17.192 35.094 17.1387C34.9652 17.0853 34.8482 17.0072 34.7497 16.9086C34.6512 16.8101 34.573 16.6931 34.5197 16.5644C34.4663 16.4356 34.4389 16.2977 34.4389 16.1583V5.19597L46.4624 17.2194H35.5ZM47.8615 36.7076L42.0908 28.8856L44.6091 27.0216L50.3906 34.8349L47.8615 36.7076ZM20.6031 44.7856L40.3602 30.1663L46.1287 37.9883L26.5804 52.4526L20.6031 44.7835V44.7856ZM18.9242 46.1309L24.8477 53.7354L24.7465 53.8108L19.12 53.8065L17.3249 51.3785L18.9242 46.1309Z" fill="#57B846"/>
</svg>
