<svg xmlns="http://www.w3.org/2000/svg" width="65" height="65" fill="none" viewBox="0 0 65 65">
  <path fill="#101920" d="M36.5 18.5a18 18 0 1 1-35.999 0 18 18 0 0 1 36 0Zm-16-8a2 2 0 1 0-4 0v6h-6a2 2 0 1 0 0 4h6v6a2 2 0 0 0 4 0v-6h6a2 2 0 0 0 0-4h-6v-6Zm32 2H39.672a21.867 21.867 0 0 0-1.572-4h14.4a12 12 0 0 1 12 12v32a12 12 0 0 1-12 12h-32a12 12 0 0 1-12-12V38.1a21.936 21.936 0 0 0 4 1.572V52.5a7.93 7.93 0 0 0 1.12 4.08l18.677-18.352a6 6 0 0 1 8.408 0l18.68 18.352A7.96 7.96 0 0 0 60.5 52.5v-32a8 8 0 0 0-8-8Zm0 14a6 6 0 1 1-12.001 0 6 6 0 0 1 12.002 0Zm-4 0a2 2 0 1 0-4 0 2 2 0 0 0 4 0ZM16.454 59.404A7.96 7.96 0 0 0 20.5 60.5h32c1.48 0 2.86-.4 4.048-1.096L37.9 41.084a2 2 0 0 0-2.8 0l-18.648 18.32Z"/>
</svg>
