<svg width="264" height="85" viewBox="0 0 264 85" fill="none" xmlns="http://www.w3.org/2000/svg">
<path d="M204.762 56.8673C199.259 56.8673 196.997 51.5766 196.997 46.5798C196.997 41.3878 198.962 36.3909 204.762 36.3909C210.463 36.3909 212.328 41.3878 212.328 46.5798C212.328 51.7717 210.46 56.8673 204.762 56.8673ZM165.136 43.2289C165.332 40.7787 166.709 36.3698 172.408 36.3698C176.731 36.3698 178.599 38.7212 179.385 43.2289H165.136ZM133.687 43.2289C133.883 40.7787 135.261 36.3698 141.058 36.3698C145.382 36.3698 147.25 38.7212 148.035 43.2289H133.687ZM211.913 34.5098H211.814C209.849 31.3753 206.113 29.7081 202.285 29.7081C193.539 29.7081 188.822 36.5673 188.133 44.3059C187.149 36.271 181.941 29.7081 172.606 29.7081C164.055 29.7081 157.864 35.3916 156.489 43.2289C155.21 35.6855 150.002 29.7081 141.157 29.7081C131.428 29.7081 124.746 37.0564 124.746 46.5586C124.746 56.4535 131.036 63.409 141.157 63.409C148.429 63.409 153.736 60.2746 156.194 52.6324H148.448C147.858 54.5911 145.009 56.7474 141.471 56.7474C136.459 56.7474 133.805 54.2972 133.61 48.6161H156.312C157.097 57.3353 163.192 63.3126 172.625 63.3126C179.896 63.3126 185.203 60.1782 187.661 52.536H179.896C179.307 54.4947 176.457 56.651 172.919 56.651C167.907 56.651 165.254 54.2008 165.058 48.5197H188.173C188.958 56.4558 193.676 63.2162 202.419 63.2162C206.547 63.2162 210.085 61.7466 212.149 58.2194H212.248V62.3344H220.603V18.4612H211.732V34.5286L211.913 34.5098ZM127.715 30.6111H121.623V28.6523C121.623 26.007 122.507 25.0264 124.965 25.0264C126.045 25.0264 127.128 25.1252 128.208 25.2216V18.6564L123.59 18.3624C116.415 18.3624 112.881 22.3787 112.881 28.0621V30.5123H107.574V36.3909H112.881V62.5508H121.727V36.4897H127.819V30.6111H127.715ZM254.881 30.6111L247.904 52.5571H247.805L240.533 30.6111H231.57V18.4635H222.725V62.6707H231.57V32.0079L242.38 60.7143C242.675 61.3021 242.774 61.9888 242.774 62.673C242.774 64.6318 241.694 66.4941 239.335 66.6893C237.566 66.7881 235.896 66.5905 234.224 66.3954V73.6449C235.993 73.84 237.861 73.9388 239.63 73.9388C245.626 73.9388 248.77 71.7825 250.636 66.6893L264 30.6346L254.881 30.6111ZM54.7375 49.1405L39.741 64.091C39.4863 64.3449 39.1042 64.5989 38.7268 64.5989H35.5496C35.1675 64.5989 34.7878 64.4719 34.5354 64.2179L30.7238 60.418C30.5736 60.2814 30.4536 60.115 30.3715 59.9296C30.2895 59.7442 30.2471 59.5437 30.2471 59.341C30.2471 59.1384 30.2895 58.9379 30.3715 58.7525C30.4536 58.567 30.5736 58.4007 30.7238 58.2641L47.3761 41.6629C47.5131 41.5132 47.68 41.3936 47.866 41.3117C48.052 41.2299 48.2531 41.1876 48.4564 41.1876C48.6597 41.1876 48.8608 41.2299 49.0468 41.3117C49.2328 41.3936 49.3996 41.5132 49.5366 41.6629L54.8743 46.9842C55.3838 47.6191 55.3838 48.6302 54.747 49.1381M54.747 71.712L50.9353 75.5119C50.6806 75.7659 50.2985 76.0198 49.9211 76.0198H46.7416C46.3595 76.0198 45.9797 75.8929 45.7274 75.6389L41.9063 71.8413C41.7561 71.7047 41.6362 71.5384 41.5541 71.3529C41.472 71.1675 41.4296 70.967 41.4296 70.7644C41.4296 70.5617 41.472 70.3612 41.5541 70.1758C41.6362 69.9903 41.7561 69.824 41.9063 69.6874L47.244 64.3661C47.381 64.2163 47.5479 64.0968 47.7339 64.0149C47.9199 63.9331 48.121 63.8908 48.3243 63.8908C48.5276 63.8908 48.7287 63.9331 48.9147 64.0149C49.1007 64.0968 49.2675 64.2163 49.4046 64.3661L54.7423 69.6874C55.3791 70.0683 55.3791 71.0818 54.7423 71.7143M28.5609 52.9616C28.3061 53.2155 27.924 53.4695 27.5466 53.4695H24.2445C23.8624 53.4695 23.4826 53.3425 23.2302 53.0885L19.4186 49.2886C19.2684 49.152 19.1485 48.9857 19.0664 48.8002C18.9843 48.6148 18.9419 48.4143 18.9419 48.2117C18.9419 48.009 18.9843 47.8085 19.0664 47.6231C19.1485 47.4376 19.2684 47.2713 19.4186 47.1347L47.3785 19.2372C47.5155 19.0874 47.6823 18.9678 47.8683 18.886C48.0543 18.8042 48.2554 18.7619 48.4587 18.7619C48.662 18.7619 48.8631 18.8042 49.0491 18.886C49.2351 18.9678 49.402 19.0874 49.539 19.2372L54.8767 24.5585C55.0269 24.6951 55.1469 24.8614 55.2289 25.0469C55.311 25.2323 55.3534 25.4328 55.3534 25.6354C55.3534 25.8381 55.311 26.0386 55.2289 26.224C55.1469 26.4095 55.0269 26.5758 54.8767 26.7124L28.5609 52.9616ZM55.8862 3.04042C51.6925 -1.01347 44.9561 -1.01347 40.8897 3.04042L3.14132 40.6518C2.14647 41.6277 1.35638 42.7913 0.817061 44.0746C0.277747 45.358 0 46.7355 0 48.127C0 49.5184 0.277747 50.896 0.817061 52.1794C1.35638 53.4627 2.14647 54.6263 3.14132 55.6022L29.9596 82.3382C31.8654 83.9842 34.2807 85 36.9507 85H59.5941C62.5188 85 65.1842 83.8596 67.0947 81.8326L93.3799 55.6069C97.4462 51.5531 97.4462 44.8373 93.3799 40.6565L55.8862 3.04042Z" fill="#57B846"/>
</svg>
