<svg xmlns="http://www.w3.org/2000/svg" width="25" height="25" fill="none" viewBox="0 0 25 25">
  <path fill="#57B846" d="M14.732 5.357a2.232 2.232 0 0 0-4.464 0h4.464Zm-5.803 0a3.571 3.571 0 1 1 7.143 0h5.58a.67.67 0 1 1 0 1.34h-1.17l-.453 5.441a6.645 6.645 0 0 0-1.31-.403l.42-5.039H5.862l1.077 12.927a2.455 2.455 0 0 0 2.447 2.252h2.36a6.74 6.74 0 0 0 1.112 1.34H9.386a3.795 3.795 0 0 1-3.781-3.48L4.518 6.696h-1.17a.67.67 0 0 1 0-1.339h5.58Zm14.285 12.947a5.803 5.803 0 1 1-11.606 0 5.803 5.803 0 0 1 11.606 0Zm-5.803-.632-2.363-2.363a.447.447 0 0 0-.632.632l2.364 2.363-2.364 2.362a.447.447 0 1 0 .632.632l2.363-2.363 2.362 2.363a.447.447 0 0 0 .633-.632l-2.364-2.362 2.363-2.363a.447.447 0 0 0-.632-.632l-2.362 2.363Z"/>
</svg>
