<svg width="60" height="60" viewBox="0 0 60 60" fill="none" xmlns="http://www.w3.org/2000/svg">
<path d="M50.8951 32.3725C53.328 32.4048 55.6498 33.3967 57.355 35.1323C59.0602 36.868 60.0109 39.2069 60.0001 41.64V50.7075C60.0116 53.1432 59.0619 55.4851 57.3573 57.2249C55.6526 58.9646 53.3305 59.9618 50.8951 60H42.0126C39.5799 59.9599 37.2614 58.9608 35.5615 57.2201C33.8615 55.4795 32.9176 53.138 32.9351 50.705V41.64C32.9105 39.2077 33.8529 36.8652 35.5552 35.1277C37.2576 33.3902 39.5803 32.4001 42.0126 32.375H50.8951V32.3725ZM12.7526 32.3725C13.2122 32.3241 13.676 32.4075 14.0899 32.6129C14.5038 32.8183 14.8507 33.1373 15.0901 33.5325C15.3345 33.9322 15.4638 34.3915 15.4638 34.86C15.4638 35.3285 15.3345 35.7878 15.0901 36.1875C14.8507 36.5827 14.5038 36.9017 14.0899 37.1071C13.676 37.3125 13.2122 37.3959 12.7526 37.3475H9.10511C7.97566 37.3587 6.89654 37.8165 6.1035 38.6208C5.31045 39.425 4.86794 40.5105 4.87262 41.64V50.5925C4.88952 51.7154 5.33904 52.7884 6.12751 53.5881C6.91598 54.3877 7.98259 54.8523 9.10511 54.885H18.0426C18.601 54.8886 19.1543 54.7798 19.6697 54.5651C20.1851 54.3503 20.652 54.034 21.0426 53.635C21.8432 52.8237 22.2922 51.7298 22.2926 50.59V37.1475L22.2551 36.8125C22.233 36.3737 22.3262 35.9368 22.5253 35.5451C22.7244 35.1534 23.0226 34.8207 23.3901 34.58C23.802 34.3112 24.2864 34.175 24.7781 34.1897C25.2697 34.2045 25.7451 34.3695 26.1401 34.6625C26.5392 34.9586 26.8422 35.3657 27.0112 35.833C27.1801 36.3004 27.2076 36.8072 27.0901 37.29V50.6775C27.1027 51.8857 26.8771 53.0845 26.4263 54.2055C25.9755 55.3265 25.3083 56.3477 24.4628 57.2108C23.6173 58.074 22.6101 58.7621 21.4986 59.236C20.3872 59.7098 19.1933 59.9601 17.9851 59.9725H9.10511C6.68142 59.8972 4.38065 58.8879 2.68381 57.1556C0.986964 55.4234 0.0253929 53.1022 0.000115207 50.6775V41.64C-0.00426955 39.1876 0.953493 36.8314 2.66762 35.0775C3.50544 34.22 4.50643 33.5389 5.61161 33.0743C6.71678 32.6098 7.90377 32.3711 9.10262 32.3725H12.7501H12.7526ZM50.8951 37.3475H42.0126C40.8859 37.3594 39.8099 37.8182 39.0214 38.6232C38.2329 39.4281 37.7963 40.5132 37.8076 41.64V50.7075C37.7984 51.8431 38.2377 52.9365 39.0301 53.75C39.4174 54.1479 39.8809 54.4636 40.3929 54.6784C40.9049 54.8931 41.4549 55.0025 42.0101 55H50.8926C51.4478 55.0025 51.9979 54.8931 52.5099 54.6784C53.0219 54.4636 53.4853 54.1479 53.8726 53.75C54.665 52.9365 55.1044 51.8431 55.0951 50.7075V41.64C55.0968 40.5061 54.6544 39.4167 53.8626 38.605C53.4753 38.2093 53.0128 37.8949 52.5024 37.6803C51.992 37.4656 51.4438 37.355 50.8901 37.355L50.8951 37.3475ZM50.8951 0C53.314 0.0822848 55.6078 1.09463 57.2988 2.82616C58.9899 4.55768 59.9476 6.87486 59.9726 9.295V18.3325C60.0058 20.7802 59.0798 23.1438 57.3926 24.9175C56.5668 25.7854 55.5759 26.4797 54.4782 26.9596C53.3805 27.4396 52.198 27.6955 51.0001 27.7125H47.3251C46.7084 27.6506 46.1367 27.3618 45.7209 26.9022C45.305 26.4425 45.0748 25.8448 45.0748 25.225C45.0748 24.6052 45.305 24.0075 45.7209 23.5478C46.1367 23.0882 46.7084 22.7994 47.3251 22.7375H50.8876C51.4489 22.7336 52.0037 22.617 52.5191 22.3945C53.0344 22.172 53.4998 21.8483 53.8876 21.4425C54.6799 20.6137 55.1146 19.5065 55.0976 18.36V9.295C55.0953 8.17251 54.6547 7.09531 53.8697 6.293C53.0846 5.49069 52.0173 5.02672 50.8951 5H42.0126C40.8859 5.01187 39.8099 5.47072 39.0214 6.27566C38.2329 7.0806 37.7963 8.16574 37.8076 9.2925V22.8525L37.7776 23.165C37.6894 23.7586 37.3906 24.3007 36.9357 24.6923C36.4808 25.0838 35.9003 25.2986 35.3001 25.2975C34.9781 25.2895 34.6609 25.2168 34.3675 25.0837C34.0742 24.9505 33.8106 24.7597 33.5926 24.5225C33.1465 24.0384 32.9094 23.3979 32.9326 22.74V9.295C32.9223 6.84214 33.8747 4.48312 35.5851 2.725C36.4204 1.8648 37.4194 1.18052 38.5233 0.712518C39.6272 0.244511 40.8136 0.00224452 42.0126 0L50.8951 0ZM17.9851 0C20.4226 0.0329518 22.7481 1.02885 24.454 2.7703C26.1598 4.51175 27.1075 6.85732 27.0901 9.295V18.36C27.0945 20.8124 26.1367 23.1686 24.4226 24.9225C23.5848 25.78 22.5838 26.4611 21.4786 26.9257C20.3734 27.3902 19.1865 27.6289 17.9876 27.6275H9.10511C6.67218 27.5952 4.35046 26.6033 2.64524 24.8677C0.940032 23.132 -0.0106463 20.7931 0.000115207 18.36V9.295C-0.0120352 6.85888 0.937338 4.51632 2.64207 2.77601C4.34681 1.0357 6.66927 0.0381579 9.10511 0H17.9851ZM17.9851 5H9.10511C8.54374 4.98957 7.98607 5.09296 7.46575 5.30392C6.94542 5.51489 6.47321 5.82907 6.07761 6.2275C5.27217 7.04376 4.82274 8.14577 4.82762 9.2925V18.36C4.81543 18.9356 4.9179 19.508 5.12907 20.0436C5.34024 20.5793 5.65588 21.0675 6.05762 21.48C6.45489 21.8861 6.93113 22.2065 7.45698 22.4215C7.98283 22.6365 8.54714 22.7415 9.11512 22.73H17.9851C18.5464 22.7261 19.1012 22.6095 19.6166 22.387C20.1319 22.1645 20.5973 21.8408 20.9851 21.435C21.7774 20.6062 22.2121 19.499 22.1951 18.3525V9.295C22.1999 8.16911 21.7605 7.08675 20.9724 6.2827C20.1842 5.47865 19.1109 5.01776 17.9851 5Z" fill="#57B846"/>
</svg>
