<svg xmlns="http://www.w3.org/2000/svg" width="60" height="61" fill="none" viewBox="0 0 60 61">
  <path fill="#57B846" fill-rule="evenodd" d="M56.188 4.456v43.819c0 .058 0 .117-.002.176-.014.056-.029.11-.046.165a3.979 3.979 0 0 1-.148.24 1.076 1.076 0 0 1-.126.121l-.127.071-.134.075a2.964 2.964 0 0 1-.125.032c-.415.02-.831.023-1.247.008h-8.04c.417-1.103.71-2.249.87-3.417a15.67 15.67 0 0 0-.47-6.502 16.118 16.118 0 0 0-3.088-5.812 16.984 16.984 0 0 0-5.218-4.202 17.748 17.748 0 0 0-6.52-1.928 17.928 17.928 0 0 0-6.79.653 17.506 17.506 0 0 0-4.71 2.194l-.08.052a16.652 16.652 0 0 0-5.102 5.342 15.818 15.818 0 0 0-2.19 6.921 15.673 15.673 0 0 0 .969 6.692H6.078c-.16 0-.321.003-.484.005-.34.006-.684.012-1.022-.007a3.23 3.23 0 0 1-.171-.044 4.3 4.3 0 0 1-.251-.142 1.072 1.072 0 0 1-.127-.12l-.075-.12-.076-.126a2.771 2.771 0 0 1-.036-.128 12.102 12.102 0 0 1-.008-1.242V4.51c0-.058 0-.117.002-.176a2.8 2.8 0 0 1 .046-.166c.047-.081.096-.161.149-.24a1.072 1.072 0 0 1 .125-.12l.127-.072.134-.074a2.5 2.5 0 0 1 .124-.032c.48-.024.96-.027 1.44-.008h15.026v14.771c.006.319.1.63.27.905.17.274.41.502.7.66a2.003 2.003 0 0 0 1.905.01l6.112-3.064 5.226 2.62.446.223c.148.075.297.15.447.222a2.005 2.005 0 0 0 1.904-.01c.29-.16.531-.387.702-.661a1.79 1.79 0 0 0 .269-.905V3.623h16.311c.065 0 .129 0 .193.002.058.013.115.027.172.044.085.044.17.091.251.141a1.113 1.113 0 0 1 .127.12l.074.121c.027.043.053.085.078.128l.022.074a1.76 1.76 0 0 0-.012.203h-.01Zm.04 43.79.01-.06-.01.06Zm-20.87-16.322-.003-.001-.046-.018.05.02ZM4.906 52.787h10.896c.395.563.826 1.104 1.289 1.62a17.09 17.09 0 0 0 6.45 4.398 17.816 17.816 0 0 0 7.833 1.145c3.696-.305 7.195-1.727 9.988-4.058a16.465 16.465 0 0 0 2.86-3.098h4.813c.701 0 1.402.002 2.102.004 1.4.005 2.8.009 4.2-.004a4.843 4.843 0 0 0 3.303-1.311 4.417 4.417 0 0 0 1.396-3.144V4.72a1.76 1.76 0 0 0 .02-.263 4.422 4.422 0 0 0-1.404-3.148A4.85 4.85 0 0 0 55.34 0H4.95a5.386 5.386 0 0 0-2.524.566c-.73.4-1.337.98-1.756 1.677a4.378 4.378 0 0 0-.63 2.293V46.82a8.13 8.13 0 0 0 .25 2.965 4.557 4.557 0 0 0 1.179 1.74 4.825 4.825 0 0 0 1.862 1.065c.51.145 1.042.21 1.575.196ZM43.23 41.76c.054.618.096 1.237.096 1.862 0 .596-.038 1.191-.113 1.783a14.213 14.213 0 0 1-.881 3.09 14.662 14.662 0 0 1-1.469 2.518c-.07.1-.143.195-.217.292l-.133.174.05-.067a5.563 5.563 0 0 0-.062.077l-.072.083a13.915 13.915 0 0 1-1.1 1.139 16.1 16.1 0 0 1-1.026.876l-.287.22.093-.073a8.33 8.33 0 0 0-.073.053 15.492 15.492 0 0 1-2.94 1.612c-1.04.391-2.12.672-3.224.84a16.397 16.397 0 0 1-3.748 0 15.96 15.96 0 0 1-3.23-.841 15.233 15.233 0 0 1-2.743-1.483 30.442 30.442 0 0 0-.191-.127l-.226-.175.246.194-.288-.22a15.654 15.654 0 0 1-1.963-1.831 2.898 2.898 0 0 0-.103-.118 4.667 4.667 0 0 1-.131-.15 6.753 6.753 0 0 1-.14-.183l.085.116-.132-.175a14.84 14.84 0 0 1-.704-1.013 1.79 1.79 0 0 0-.099-.193 15.326 15.326 0 0 1-.826-1.552 14.277 14.277 0 0 1-.878-3.088 14.195 14.195 0 0 1 0-3.555c.176-1.062.472-2.102.884-3.103a14.197 14.197 0 0 1 1.593-2.684l.112-.145a4.858 4.858 0 0 0 .145-.188l-.056.074-.008.01-.02.025-.061.078c-.021.027-.036.042-.034.036a.165.165 0 0 1 .007-.022l.009-.012a5.238 5.238 0 0 0 .138-.177l.019-.026a5.32 5.32 0 0 1 .08-.078h.001c.045-.044.087-.084.116-.117a14.535 14.535 0 0 1 1.989-1.866l.172-.133c.295-.204.592-.404.894-.591a15.51 15.51 0 0 1 2.152-1.095 16.013 16.013 0 0 1 3.242-.843 16.225 16.225 0 0 1 3.7 0c1.112.169 2.202.452 3.25.846a15.74 15.74 0 0 1 1.868.924c.318.188.638.384.943.596l.152.107a5.474 5.474 0 0 0 .185.132c.047.032.041.028.011.007l-.034-.024a10.47 10.47 0 0 1-.043-.03l-.01-.008-.026-.019-.083-.058c-.027-.02-.044-.034-.037-.033a.244.244 0 0 1 .017.005l.038.027a5.17 5.17 0 0 0 .185.132l.02.013.07.067c.046.043.088.083.122.11a14.683 14.683 0 0 1 1.955 1.9l.065.078.083.098c.211.278.417.557.61.841.44.655.823 1.343 1.147 2.056.4.97.69 1.977.867 3.005Zm-4.921-8.157a.815.815 0 0 0-.234-.167.654.654 0 0 0 .031.024l.083.058.026.02.01.007.077.054.007.004Zm.002.002a.04.04 0 0 0-.002-.002c.02.014.025.017.002.002ZM19.461 35.8l-.008.01-.02.025-.061.079-.009.01a.752.752 0 0 1 .164-.211l-.01.014-.056.073Zm23.8 9.29Zm-1.07 3.737.083-.193-.083.193Zm-6.743 6.436a8.22 8.22 0 0 1-.218.086l.218-.086Zm-3.908 1.022.12-.016-.12.016Zm-3.085 0-.119-.016.12.016Zm-3.907-1.022.217.086a15.604 15.604 0 0 1-.217-.086Zm-6.725-6.438-.077-.177.077.177Zm-1.053-3.621a11.395 11.395 0 0 0-.017-.115l.01.066.007.049Zm-.017-3.049Zm1.057-3.707-.052.12.052-.12Zm24.426.008.059.137-.06-.137Zm1.057 3.708ZM3.788 4.54l-.01.06.01-.06Zm21.038 10.836V3.656H35.17V15.38l-3.39-1.696-.278-.14v-.001c-.179-.09-.359-.183-.537-.267a2.193 2.193 0 0 0-2.015.036c-.079.041-.16.08-.24.12-.064.03-.126.06-.188.092l-1.008.502c-.87.432-1.743.865-2.612 1.313l-.075.037Zm.28 34.375-4.265-4.072a1.784 1.784 0 0 1-.56-1.29c0-.485.202-.949.56-1.291a1.958 1.958 0 0 1 1.351-.535c.507 0 .993.193 1.352.535l.605.578 2.913 2.782 5.342-5.1 3.415-3.261a1.958 1.958 0 0 1 1.351-.535c.507 0 .993.192 1.352.535.358.342.56.806.56 1.29s-.202.948-.56 1.29l-1.25 1.194-5.443 5.197-3.415 3.261a1.984 1.984 0 0 1-1.352.525c-.505 0-.99-.188-1.35-.525l-.606-.578Z" clip-rule="evenodd"/>
</svg>
