<svg xmlns="http://www.w3.org/2000/svg" width="25" height="25" fill="none" viewBox="0 0 25 25">
  <path fill="#57B846" d="m7.292 17.722 4.596-.016L21.922 7.77c.393-.394.61-.917.61-1.473s-.216-1.08-.61-1.473L20.27 3.17c-.788-.788-2.162-.784-2.943-.003L7.29 13.108v4.614ZM18.797 4.644l1.655 1.649-1.664 1.648-1.652-1.651 1.66-1.646Zm-9.422 9.332 6.281-6.222 1.652 1.652-6.28 6.22-1.653.005v-1.655Z"/>
  <path fill="#57B846" d="M5.208 21.875h14.584a2.085 2.085 0 0 0 2.083-2.083v-9.03l-2.083 2.084v6.946H8.498c-.027 0-.055.01-.082.01-.035 0-.07-.01-.105-.01H5.208V5.208h7.133l2.083-2.083H5.208a2.085 2.085 0 0 0-2.083 2.083v14.584c0 1.149.934 2.083 2.083 2.083Z"/>
</svg>
