<svg width="60" height="43" viewBox="0 0 60 43" fill="none" xmlns="http://www.w3.org/2000/svg">
<path d="M58.3125 24.3125C57.9905 24.5607 57.594 24.6928 57.1875 24.6875C56.8964 24.6875 56.6093 24.6197 56.349 24.4896C56.0886 24.3594 55.8622 24.1704 55.6875 23.9375C54.5574 22.4184 53.0864 21.1859 51.3929 20.3392C49.6995 19.4925 47.8308 19.0552 45.9375 19.0625C45.4402 19.0625 44.9633 18.865 44.6117 18.5133C44.26 18.1617 44.0625 17.6848 44.0625 17.1875C44.0625 16.6902 44.26 16.2133 44.6117 15.8617C44.9633 15.51 45.4402 15.3125 45.9375 15.3125C47.0046 15.3114 48.0494 15.0067 48.9499 14.4341C49.8504 13.8615 50.5694 13.0445 51.023 12.0786C51.4766 11.1127 51.6461 10.0377 51.5117 8.97903C51.3773 7.92041 50.9445 6.92185 50.2639 6.09994C49.5833 5.27803 48.683 4.66668 47.668 4.33725C46.653 4.00782 45.5652 3.97391 44.5317 4.23947C43.4981 4.50504 42.5614 5.05912 41.8309 5.83704C41.1005 6.61496 40.6063 7.58462 40.4063 8.63282C40.3699 8.88346 40.2831 9.12414 40.1511 9.34032C40.0192 9.55651 39.8448 9.74372 39.6385 9.89066C39.4322 10.0376 39.1983 10.1412 38.9508 10.1953C38.7034 10.2493 38.4476 10.2527 38.1988 10.2051C37.95 10.1576 37.7135 10.0602 37.5034 9.91868C37.2933 9.77721 37.1141 9.59464 36.9765 9.38199C36.8389 9.16934 36.7458 8.93103 36.7029 8.68142C36.6599 8.43181 36.668 8.17609 36.7266 7.92969C37.0047 6.47147 37.6252 5.10014 38.5369 3.92859C39.4487 2.75704 40.6256 1.81875 41.9708 1.19094C43.3161 0.563139 44.7911 0.263771 46.2747 0.317478C47.7582 0.371186 49.2078 0.776434 50.5041 1.49987C51.8005 2.2233 52.9064 3.24424 53.7311 4.47865C54.5557 5.71307 55.0754 7.12567 55.2474 8.60019C55.4194 10.0747 55.2388 11.569 54.7204 12.9601C54.202 14.3511 53.3606 15.5992 52.2656 16.6016C54.814 17.7065 57.0282 19.4601 58.6875 21.6875C58.8352 21.8845 58.9427 22.1086 59.0038 22.3472C59.065 22.5857 59.0785 22.8339 59.0437 23.0777C59.0088 23.3214 58.9263 23.5559 58.8009 23.7678C58.6754 23.9797 58.5095 24.1648 58.3125 24.3125ZM45.1875 39.8047C45.3991 40.2532 45.4269 40.7666 45.2648 41.2353C45.1028 41.7039 44.7638 42.0906 44.3203 42.3125C44.0617 42.4277 43.783 42.4914 43.5 42.5C43.1487 42.4976 42.8049 42.3977 42.507 42.2115C42.2091 42.0253 41.9686 41.76 41.8125 41.4453C40.7313 39.2336 39.0509 37.3699 36.9626 36.0663C34.8742 34.7626 32.4618 34.0715 30 34.0715C27.5382 34.0715 25.1258 34.7626 23.0375 36.0663C20.9491 37.3699 19.2687 39.2336 18.1875 41.4453C18.0799 41.667 17.9297 41.8654 17.7454 42.029C17.5611 42.1926 17.3463 42.3183 17.1134 42.3988C16.8805 42.4794 16.634 42.5132 16.3879 42.4984C16.1419 42.4836 15.9013 42.4204 15.6797 42.3125C15.2363 42.0906 14.8973 41.7039 14.7352 41.2353C14.5731 40.7666 14.6009 40.2532 14.8125 39.8047C16.555 36.2167 19.5106 33.3607 23.1563 31.7422C21.2902 30.3119 19.9192 28.3329 19.2358 26.0833C18.5523 23.8337 18.5909 21.4265 19.3461 19.2C20.1012 16.9734 21.535 15.0394 23.4459 13.6696C25.3568 12.2999 27.6489 11.5633 30 11.5633C32.3511 11.5633 34.6432 12.2999 36.5541 13.6696C38.465 15.0394 39.8988 16.9734 40.6539 19.2C41.4091 21.4265 41.4477 23.8337 40.7643 26.0833C40.0809 28.3329 38.7098 30.3119 36.8438 31.7422C40.4894 33.3607 43.445 36.2167 45.1875 39.8047ZM30 30.3125C31.4834 30.3125 32.9334 29.8726 34.1668 29.0485C35.4002 28.2244 36.3614 27.0531 36.9291 25.6826C37.4968 24.3122 37.6453 22.8042 37.3559 21.3493C37.0665 19.8945 36.3522 18.5581 35.3033 17.5092C34.2544 16.4603 32.918 15.746 31.4632 15.4566C30.0083 15.1672 28.5003 15.3157 27.1299 15.8834C25.7594 16.4511 24.5881 17.4124 23.764 18.6457C22.9399 19.8791 22.5 21.3291 22.5 22.8125C22.5062 24.7997 23.2983 26.7038 24.7035 28.109C26.1087 29.5142 28.0128 30.3063 30 30.3125ZM15.9375 17.1875C15.9375 16.6902 15.74 16.2133 15.3883 15.8617C15.0367 15.51 14.5598 15.3125 14.0625 15.3125C12.9954 15.3114 11.9506 15.0067 11.0501 14.4341C10.1497 13.8615 9.43064 13.0445 8.97702 12.0786C8.52341 11.1127 8.35391 10.0377 8.48832 8.97903C8.62272 7.92041 9.05548 6.92185 9.73608 6.09994C10.4167 5.27803 11.317 4.66668 12.332 4.33725C13.347 4.00782 14.4348 3.97391 15.4684 4.23947C16.5019 4.50504 17.4386 5.05912 18.1691 5.83704C18.8995 6.61496 19.3937 7.58462 19.5938 8.63282C19.6301 8.88346 19.7169 9.12414 19.8489 9.34032C19.9808 9.55651 20.1552 9.74372 20.3615 9.89066C20.5678 10.0376 20.8017 10.1412 21.0492 10.1953C21.2966 10.2493 21.5524 10.2527 21.8012 10.2051C22.05 10.1576 22.2866 10.0602 22.4966 9.91868C22.7067 9.77721 22.886 9.59464 23.0235 9.38199C23.1611 9.16934 23.2542 8.93103 23.2972 8.68142C23.3401 8.43181 23.332 8.17609 23.2734 7.92969C22.9953 6.47147 22.3748 5.10014 21.4631 3.92859C20.5513 2.75704 19.3744 1.81875 18.0292 1.19094C16.684 0.563139 15.2089 0.263771 13.7253 0.317478C12.2418 0.371186 10.7922 0.776434 9.49587 1.49987C8.19956 2.2233 7.09357 3.24424 6.26894 4.47865C5.44431 5.71307 4.92461 7.12567 4.75262 8.60019C4.58063 10.0747 4.76127 11.569 5.27965 12.9601C5.79804 14.3511 6.63937 15.5992 7.73438 16.6016C5.18605 17.7065 2.97185 19.4601 1.31251 21.6875C1.01414 22.0853 0.886026 22.5854 0.956352 23.0777C1.02668 23.57 1.28968 24.0141 1.68751 24.3125C2.00956 24.5607 2.40597 24.6928 2.81251 24.6875C3.10359 24.6875 3.39068 24.6197 3.65103 24.4896C3.91139 24.3594 4.13786 24.1704 4.31251 23.9375C5.44263 22.4184 6.91363 21.1859 8.6071 20.3392C10.3006 19.4925 12.1692 19.0552 14.0625 19.0625C14.5598 19.0625 15.0367 18.865 15.3883 18.5133C15.74 18.1617 15.9375 17.6848 15.9375 17.1875Z" fill="#57B846"/>
</svg>
