<svg width="70" height="60" viewBox="0 0 70 60" fill="none" xmlns="http://www.w3.org/2000/svg">
<path d="M69.4746 31.5791V47.3701C69.4746 48.2077 69.1419 49.011 68.5496 49.6033C67.9573 50.1956 67.154 50.5283 66.3164 50.5283H63.1582C63.1802 51.7863 62.9514 53.036 62.4852 54.2046C62.019 55.3732 61.3247 56.4373 60.4429 57.3346C59.5611 58.232 58.5093 58.9448 57.349 59.4314C56.1888 59.9179 54.9432 60.1685 53.6851 60.1685C52.4269 60.1685 51.1813 59.9179 50.0211 59.4314C48.8608 58.9448 47.809 58.232 46.9272 57.3346C46.0454 56.4373 45.3511 55.3732 44.8849 54.2046C44.4187 53.036 44.1899 51.7863 44.2119 50.5283H25.2627C25.2847 51.7863 25.0559 53.036 24.5897 54.2046C24.1235 55.3732 23.4292 56.4373 22.5474 57.3346C21.6656 58.232 20.6138 58.9448 19.4535 59.4314C18.2933 59.9179 17.0477 60.1685 15.7896 60.1685C14.5314 60.1685 13.2858 59.9179 12.1256 59.4314C10.9653 58.9448 9.91354 58.232 9.0317 57.3346C8.14986 56.4373 7.45558 55.3732 6.98938 54.2046C6.52319 53.036 6.29441 51.7863 6.3164 50.5283H3.1582C2.74346 50.5283 2.33278 50.4466 1.94961 50.2879C1.56644 50.1292 1.21828 49.8965 0.925015 49.6033C0.332738 49.011 0 48.2077 0 47.3701V9.4746C0 6.96178 0.998214 4.55188 2.77505 2.77505C4.55188 0.998214 6.96178 0 9.4746 0H37.8955C40.4083 0 42.8182 0.998214 44.5951 2.77505C46.3719 4.55188 47.3701 6.96178 47.3701 9.4746V15.791H53.6865C55.1571 15.7911 56.6076 16.1336 57.9229 16.7913C59.2383 17.4489 60.3825 18.4038 61.265 19.5803L68.8435 29.6859C68.9356 29.8235 69.0096 29.9723 69.0635 30.1288L69.2517 30.4762C69.3914 30.8275 69.4669 31.2011 69.4746 31.5791ZM18.9463 50.5283C18.9463 49.9037 18.7611 49.2931 18.4141 48.7737C18.067 48.2543 17.5738 47.8495 16.9967 47.6105C16.4196 47.3715 15.7846 47.3089 15.172 47.4308C14.5593 47.5526 13.9966 47.8534 13.5549 48.2951C13.1132 48.7368 12.8124 49.2995 12.6906 49.9122C12.5687 50.5248 12.6313 51.1598 12.8703 51.7369C13.1093 52.314 13.5141 52.8072 14.0335 53.1542C14.5529 53.5013 15.1635 53.6865 15.7881 53.6865C16.2028 53.6865 16.6135 53.6048 16.9967 53.4461C17.3799 53.2874 17.728 53.0547 18.0213 52.7615C18.3146 52.4682 18.5472 52.1201 18.7059 51.7369C18.8646 51.3537 18.9463 50.943 18.9463 50.5283ZM41.0537 9.4746C41.0537 8.63699 40.721 7.83369 40.1287 7.24141C39.5364 6.64914 38.7331 6.3164 37.8955 6.3164H9.4746C8.63699 6.3164 7.83369 6.64914 7.24141 7.24141C6.64914 7.83369 6.3164 8.63699 6.3164 9.4746V44.2119H8.77985C9.66788 43.2349 10.7503 42.4543 11.9577 41.9201C13.165 41.386 14.4707 41.11 15.791 41.11C17.1113 41.11 18.417 41.386 19.6243 41.9201C20.8317 42.4543 21.9141 43.2349 22.8021 44.2119H41.0537V9.4746ZM47.3701 28.4209H60.0029L56.2136 23.3695C55.9193 22.9774 55.5377 22.6592 55.099 22.4402C54.6604 22.2211 54.1768 22.1072 53.6865 22.1074H47.3701V28.4209ZM56.8447 50.5254C56.8447 49.9008 56.6595 49.2902 56.3124 48.7708C55.9654 48.2514 55.4722 47.8466 54.8951 47.6076C54.318 47.3686 53.683 47.306 53.0704 47.4279C52.4577 47.5497 51.895 47.8505 51.4533 48.2922C51.0116 48.7339 50.7108 49.2966 50.589 49.9093C50.4671 50.5219 50.5297 51.1569 50.7687 51.734C51.0077 52.3111 51.4125 52.8043 51.9319 53.1513C52.4513 53.4984 53.0619 53.6836 53.6865 53.6836C54.5231 53.6828 55.3252 53.3502 55.9168 52.7586C56.5084 52.167 56.841 51.3649 56.8418 50.5283L56.8447 50.5254ZM63.1582 34.7373H47.3701V43.5172C49.2334 41.855 51.6774 40.9955 54.171 41.1256C56.6645 41.2557 59.0059 42.3648 60.6861 44.2119H63.1495L63.1582 34.7373Z" fill="#57B846"/>
</svg>
