<svg xmlns="http://www.w3.org/2000/svg" width="60" height="60" fill="none" viewBox="0 0 60 60">
  <path fill="#57B846" fill-rule="evenodd" d="M20.17 32.063c.616.283 1.286.43 1.964.432l.006-.005a4.744 4.744 0 0 0 3.143-1.179l4.677-4.067 4.676 4.047a4.744 4.744 0 0 0 5.129.767 4.892 4.892 0 0 0 2.869-4.494V4.99h6.856a5.52 5.52 0 0 1 5.52 5.52v39.038a5.52 5.52 0 0 1-5.52 5.54H10.452a5.54 5.54 0 0 1-5.54-5.54V10.51a5.52 5.52 0 0 1 5.54-5.52H17.3v22.579a4.892 4.892 0 0 0 2.869 4.494ZM19.14.078h-8.688A10.452 10.452 0 0 0 0 10.51v39.038A10.452 10.452 0 0 0 10.452 60H49.49a10.452 10.452 0 0 0 10.432-10.452V10.51A10.432 10.432 0 0 0 49.49.078H20.372a2.457 2.457 0 0 0-1.231 0ZM37.739 4.99H22.212v22.574l4.617-4.088a4.744 4.744 0 0 1 6.307 0l4.744 4.108-.142-22.594Zm-22.51 42.87h17.683a2.457 2.457 0 1 0 0-4.91H15.228a2.459 2.459 0 0 0-2.34 3.413 2.458 2.458 0 0 0 2.34 1.497Z" clip-rule="evenodd"/>
</svg>
