<svg width="48" height="48" viewBox="0 0 48 48" fill="none" xmlns="http://www.w3.org/2000/svg">
<path d="M27.9 1.44C25.3965 0.438458 22.6035 0.438458 20.1 1.44L2.829 8.355C1.99473 8.68864 1.27944 9.2644 0.775246 10.0081C0.271054 10.7518 0.00104824 11.6295 6.28068e-08 12.528V35.466C-0.000150192 36.3655 0.269297 37.2445 0.773565 37.9894C1.27783 38.7343 1.99378 39.311 2.829 39.645L20.1 46.554C22.6035 47.5555 25.3965 47.5555 27.9 46.554L45.171 39.645C46.0062 39.311 46.7222 38.7343 47.2264 37.9894C47.7307 37.2445 48.0001 36.3655 48 35.466V12.528C47.9995 11.629 47.7298 10.7507 47.2256 10.0064C46.7214 9.26206 46.0057 8.68584 45.171 8.352L27.9 1.44ZM21.216 4.23C23.0041 3.51473 24.9989 3.51473 26.787 4.23L42.462 10.5L35.625 13.23L17.163 5.85L21.213 4.23H21.216ZM13.125 7.461L31.587 14.844L24 17.883L5.538 10.497L13.125 7.464V7.461ZM25.5 20.511L45 12.711V35.463C45.0005 35.7631 44.911 36.0564 44.7431 36.3051C44.5752 36.5538 44.3365 36.7464 44.058 36.858L26.784 43.767C26.364 43.932 25.935 44.061 25.5 44.151V20.511ZM22.5 20.511V44.151C22.0614 44.0614 21.6317 43.9329 21.216 43.767L3.942 36.858C3.66394 36.7466 3.42561 36.5544 3.25772 36.3063C3.08983 36.0582 3.00007 35.7656 3 35.466V12.714L22.5 20.514V20.511Z" fill="#57B846"/>
</svg>
